<svg id="Capa_1" data-name="Capa 1" xmlns="http://www.w3.org/2000/svg" viewBox="0 0 410.98 185.99"><defs><style>.cls-1{fill:#ed1b24;}.cls-2{fill:#fff;}</style></defs><title>Marvel_Comics</title><rect class="cls-1" width="410.98" height="185.99"/><polygon class="cls-2" points="354.9 26.41 377.9 26.41 377.9 135.41 397.4 135.41 397.4 162.91 354.9 162.91 354.9 26.41"/><path class="cls-2" d="M16.9,162.4V26.4h31l11,57,12.5-57h30V148.9L120.9,26.4h30.5l19,122.5V26.9h40.5s14,2.5,21,22l-3-22.5h24.5l11.5,70.5,12-70h69V52.4H325.4v28h19.5v28.5h-19v26h20v27.5H301.4V31.4l-23,131H250.9l-14.5-87s-2.5,24-16,35l17.5,52h-24l-17-45.5v45.5H148.4l-2.5-13H127.4l-4,13h-46v-50l-12,50H52.9l-11-49.5v49Zm126.5-39.5-7-41.5-6,41.5Zm53-31.5c16.5-1,15-21.5,15-21.5-2.5-20-15-19-15-19Z"/></svg>